<?xml version="1.0" standalone="no"?>
<!DOCTYPE svg PUBLIC "-//W3C//DTD SVG 20010904//EN"
 "http://www.w3.org/TR/2001/REC-SVG-20010904/DTD/svg10.dtd">
<svg version="1.0" xmlns="http://www.w3.org/2000/svg"
 width="1280.000000pt" height="1280.000000pt" viewBox="0 0 1280.000000 1280.000000"
 preserveAspectRatio="xMidYMid meet">
<metadata>
Created by potrace 1.15, written by Peter Selinger 2001-2017
</metadata>
<g transform="translate(0.000000,1280.000000) scale(0.100000,-0.100000)"
fill="#000000" stroke="none">
<path d="M6320 12780 c-230 -62 -2226 -597 -2715 -727 l-400 -106 -1175 -1174
-1175 -1173 -28 -108 c-32 -122 -370 -1385 -728 -2719 l-100 -373 100 -372
c358 -1335 696 -2598 728 -2720 l28 -108 1175 -1173 1175 -1174 400 -106 c394
-105 932 -248 2045 -547 311 -83 607 -163 658 -176 l92 -25 93 25 c50 13 346
93 657 176 1113 299 1651 442 2045 547 l400 106 1175 1174 1175 1173 28 108
c32 122 370 1385 728 2720 l100 372 -100 373 c-358 1334 -696 2597 -728 2719
l-28 108 -1175 1173 -1175 1174 -400 106 c-220 58 -643 171 -940 251 -589 158
-1617 433 -1760 472 -104 28 -91 27 -175 4z m-145 -107 c-16 -9 -302 -174
-635 -367 l-605 -351 -748 -5 c-411 -3 -747 -3 -747 0 0 3 37 15 83 27 45 11
343 90 662 176 319 85 877 235 1240 333 363 97 680 182 705 189 62 18 81 17
45 -2z m515 -4 c41 -11 325 -87 630 -169 305 -82 852 -228 1215 -326 363 -97
697 -186 743 -197 45 -12 82 -24 82 -27 0 -3 -336 -3 -747 0 l-748 5 -605 351
c-333 193 -618 358 -635 367 -41 22 -24 21 65 -4z m-807 -371 l-344 -343 -254
-5 c-140 -3 -255 -3 -255 0 1 5 1180 688 1191 689 3 1 -149 -153 -338 -341z
m1296 -3 c325 -187 590 -342 591 -345 0 -3 -115 -3 -255 0 l-254 5 -344 343
c-189 188 -340 341 -336 340 4 -2 273 -156 598 -343z m-933 263 c-14 -24 -99
-170 -188 -325 l-163 -283 -140 0 -140 0 325 325 c179 179 326 325 328 325 2
0 -8 -19 -22 -42z m614 -283 l325 -325 -140 0 -140 0 -163 283 c-89 155 -174
301 -188 325 -14 23 -24 42 -22 42 2 0 149 -146 328 -325z m-546 273 c-4 -13
-42 -151 -84 -308 l-77 -285 -96 -3 c-54 -1 -97 0 -97 3 0 8 352 615 357 615
2 0 1 -10 -3 -22z m355 -290 c94 -164 171 -300 171 -303 0 -3 -43 -4 -97 -3
l-96 3 -77 285 c-42 157 -80 296 -84 310 -15 47 10 7 183 -292z m-299 -8 l0
-300 -80 0 c-44 0 -80 3 -80 8 0 4 34 132 75 286 41 153 75 285 75 292 0 8 2
14 5 14 3 0 5 -135 5 -300z m149 -21 c39 -146 71 -269 71 -273 0 -3 -36 -6
-80 -6 l-80 0 1 303 c1 166 4 289 9 272 4 -16 39 -150 79 -296z m-1734 -357
c-126 -76 -404 -232 -414 -232 -11 0 -900 235 -926 245 -5 2 301 4 680 4 670
1 689 0 660 -17z m474 -199 l-218 -216 -297 80 -296 80 233 135 234 136 281 1
280 1 -217 -217z m594 204 c-4 -8 -77 -134 -162 -280 -85 -147 -159 -267 -164
-267 -10 0 -376 96 -406 106 -10 3 61 81 209 229 l225 225 153 0 c124 0 152
-2 145 -13z m196 -313 c-48 -180 -90 -332 -93 -339 -3 -9 -51 0 -181 35 -97
27 -179 50 -181 53 -4 3 225 408 308 545 l20 32 107 0 108 0 -88 -326z m321
-68 l0 -394 -147 39 c-82 22 -161 42 -176 46 -16 3 -31 11 -33 18 -4 8 130
524 172 668 5 14 18 17 95 17 l89 0 0 -394z m244 377 c42 -144 176 -660 172
-668 -2 -7 -17 -15 -33 -18 -15 -4 -94 -24 -175 -46 l-148 -39 0 394 0 394 89
0 c77 0 90 -3 95 -17z m433 -272 c90 -156 162 -286 159 -288 -2 -3 -84 -26
-181 -53 -130 -35 -178 -44 -181 -35 -3 7 -45 159 -93 339 l-88 327 110 -3
110 -3 164 -284z m423 64 c148 -148 219 -226 209 -229 -30 -10 -396 -106 -406
-106 -5 0 -79 120 -164 267 -85 146 -158 272 -162 280 -7 11 21 13 145 13
l153 0 225 -225z m645 88 l237 -136 -296 -80 -297 -80 -218 216 -217 217 277
0 277 0 237 -137z m1240 132 c-26 -10 -915 -245 -926 -245 -10 0 -288 156
-414 232 -29 17 -10 18 660 17 380 0 686 -2 680 -4z m-5520 -159 c215 -57 410
-110 434 -116 l43 -11 -112 -66 c-62 -35 -118 -67 -125 -69 -9 -4 -516 281
-651 365 -18 11 -18 12 1 7 11 -3 196 -52 410 -110z m5541 103 c-423 -246
-642 -369 -651 -365 -7 2 -63 34 -125 70 -107 61 -111 65 -84 72 16 4 216 58
444 120 228 62 420 113 425 113 6 0 2 -4 -9 -10z m-5685 -215 c167 -97 307
-179 312 -183 5 -5 -110 -80 -155 -99 -4 -2 -111 100 -238 227 -126 127 -229
231 -227 231 2 0 140 -79 308 -176z m5499 -55 c-127 -127 -234 -229 -238 -227
-37 16 -160 93 -156 97 8 9 608 359 616 360 5 1 -96 -103 -222 -230z m-6475
-450 c-201 -349 -371 -639 -378 -646 -10 -9 -1274 -743 -1280 -743 -1 0 452
456 1008 1013 555 556 1011 1011 1013 1011 1 -1 -162 -287 -363 -635z m1075
191 c0 -6 -141 -83 -144 -78 -1 1 -49 84 -106 183 -56 99 -125 218 -152 265
l-50 85 226 -225 c124 -124 226 -227 226 -230z m5621 368 c-26 -46 -95 -164
-151 -263 -57 -99 -105 -182 -106 -184 -3 -3 -131 65 -144 76 -3 3 440 453
447 453 2 0 -19 -37 -46 -82z m2333 -1946 c-2 -4 -1268 728 -1281 741 -9 10
-743 1274 -743 1280 0 1 456 -452 1013 -1008 556 -555 1011 -1011 1011 -1013z
m-8739 1522 c-69 -258 -129 -472 -133 -475 -14 -13 -426 -248 -429 -245 -4 4
681 1194 685 1191 1 -1 -54 -213 -123 -471z m449 208 c80 -140 146 -257 146
-260 0 -4 -32 -24 -70 -45 -51 -28 -71 -35 -75 -25 -16 45 -160 597 -155 591
4 -4 73 -122 154 -261z m5974 -24 c-43 -161 -81 -299 -83 -306 -4 -10 -24 -3
-75 25 -38 21 -70 41 -70 44 0 7 300 529 304 529 1 0 -33 -132 -76 -292z m929
-904 c-3 -3 -415 232 -429 245 -6 6 -258 931 -258 948 0 4 155 -262 345 -592
190 -329 344 -599 342 -601z m-7174 425 c-12 -11 -236 -140 -238 -137 -1 2 53
205 119 452 l121 449 3 -378 c1 -208 -1 -382 -5 -386z m6561 286 c62 -231 112
-421 111 -423 -1 -1 -56 29 -121 67 l-119 69 -2 384 c-1 253 2 373 8 353 6
-16 61 -219 123 -450z m-6414 147 c45 -167 80 -305 78 -306 -2 -1 -25 -15 -53
-31 -27 -15 -65 -36 -82 -47 l-33 -20 1 364 c0 200 2 359 5 353 2 -5 40 -147
84 -313z m6228 -221 l-3 -179 -75 44 c-41 24 -79 45 -83 47 -5 1 29 144 75
316 l83 313 3 -181 c1 -100 1 -262 0 -360z m-4856 333 c164 -43 297 -81 296
-84 0 -3 -71 -74 -157 -157 l-156 -153 -268 155 c-148 85 -275 159 -284 163
-11 7 20 29 119 85 73 43 138 75 143 74 6 -2 144 -40 307 -83z m3846 9 c99
-56 130 -78 119 -85 -9 -4 -136 -78 -284 -163 l-268 -155 -156 153 c-86 83
-157 154 -157 157 -1 4 557 159 608 169 2 1 65 -33 138 -76z m-3260 -167 c112
-30 206 -57 209 -60 4 -4 -254 -464 -272 -484 -2 -2 -405 228 -464 265 -24 15
-24 15 139 178 90 90 168 161 174 159 6 -2 102 -28 214 -58z m2759 -272 c-16
-14 -469 -275 -472 -272 -18 20 -276 480 -272 484 3 4 102 32 219 64 l213 57
162 -161 c126 -124 160 -163 150 -172z m-3690 165 c153 -88 280 -163 283 -165
2 -3 -56 -65 -130 -138 l-135 -134 -247 249 -247 248 87 50 c48 28 92 51 99
51 6 0 137 -72 290 -161z m4474 111 l88 -51 -247 -248 -247 -249 -135 135
c-107 106 -132 136 -120 143 134 82 549 319 559 319 7 1 53 -22 102 -49z
m-4743 -333 l252 -252 -134 -134 -134 -134 -15 24 c-34 53 -377 653 -377 658
1 6 140 89 150 90 3 1 119 -113 258 -252z m1661 207 c97 -26 179 -49 183 -53
4 -4 -5 -51 -20 -106 l-28 -100 -284 -77 c-157 -42 -290 -77 -297 -77 -7 -1
47 102 120 229 73 126 136 230 141 230 6 0 89 -21 185 -46z m1628 -184 c73
-127 127 -230 120 -229 -7 0 -140 35 -297 77 l-284 77 -28 100 c-15 54 -25
102 -22 105 7 6 343 98 364 99 9 0 65 -87 147 -229z m1672 185 c39 -22 71 -43
71 -46 0 -5 -344 -606 -377 -658 l-15 -24 -134 134 -134 134 252 252 c139 139
256 252 260 251 3 -2 38 -21 77 -43z m-2897 -110 c73 -20 134 -37 135 -39 2
-1 -73 -23 -165 -47 -92 -25 -168 -42 -170 -38 -2 4 7 44 19 89 16 60 25 80
35 76 8 -3 74 -22 146 -41z m678 -36 c12 -44 20 -84 18 -88 -2 -4 -79 13 -172
38 -92 25 -162 47 -155 50 16 5 271 78 280 80 4 0 17 -35 29 -80z m-3005 -260
c105 -181 191 -335 193 -342 3 -14 -348 -111 -359 -99 -5 6 -178 645 -183 676
-1 9 132 94 149 95 6 0 96 -148 200 -330z m5417 295 c35 -21 68 -41 74 -45 8
-6 -17 -112 -81 -351 -81 -301 -95 -343 -111 -341 -11 1 -92 21 -182 45 -105
28 -162 47 -160 55 5 21 383 672 390 673 4 0 35 -16 70 -36z m-4310 -206 c173
-101 224 -135 211 -140 -10 -4 -137 -39 -283 -78 -146 -39 -271 -72 -277 -75
-7 -2 -48 29 -90 71 l-77 75 140 140 c76 76 140 139 143 139 2 0 106 -60 233
-132z m1438 -318 l0 -451 -22 12 c-60 32 -524 302 -532 309 -10 10 101 438
118 457 8 8 392 118 429 122 4 1 7 -202 7 -449z m290 389 c107 -28 200 -56
206 -62 17 -19 128 -447 118 -457 -8 -7 -472 -277 -531 -309 l-23 -12 0 451
c0 425 1 451 18 446 9 -3 105 -28 212 -57z m1584 -78 l140 -140 -77 -75 c-42
-42 -83 -73 -90 -71 -6 3 -131 36 -277 75 -146 39 -273 74 -283 78 -13 5 38
39 210 139 125 73 230 133 233 133 3 0 68 -63 144 -139z m-4800 67 c8 -35 49
-186 89 -336 41 -150 71 -274 68 -276 -8 -5 -344 -96 -354 -96 -4 0 -6 151 -5
336 l3 337 85 48 c47 27 88 49 91 49 4 0 14 -28 23 -62z m6026 13 l85 -48 3
-337 c1 -185 -1 -336 -5 -336 -10 0 -346 91 -354 96 -3 2 27 126 68 276 40
150 81 301 89 336 9 34 19 62 23 62 3 0 44 -22 91 -49z m-6280 -409 l0 -328
-211 -58 c-116 -31 -213 -55 -215 -53 -2 2 33 141 77 308 l82 304 131 77 c72
42 132 77 134 78 1 0 2 -148 2 -328z m2670 296 c-5 -18 -30 -109 -54 -202 -25
-93 -47 -170 -48 -171 -4 -3 -428 241 -440 253 -8 8 492 149 534 151 14 1 15
-4 8 -31z m1362 -40 c149 -40 265 -75 260 -80 -12 -12 -436 -256 -440 -253 -1
1 -23 78 -48 171 -24 93 -49 184 -54 202 -5 21 -5 32 2 32 6 0 132 -32 280
-72z m2574 -35 l81 -47 82 -305 c44 -167 79 -306 77 -308 -2 -2 -99 22 -215
53 l-211 58 0 328 0 328 53 -30 c28 -17 88 -52 133 -77z m-4063 -352 c6 -6
-27 -147 -93 -393 -56 -211 -104 -386 -107 -390 -6 -11 -575 561 -571 576 2 7
65 121 142 253 l139 240 240 -138 c132 -76 244 -142 250 -148z m1966 41 c78
-134 141 -248 141 -253 0 -14 -569 -580 -573 -571 -3 4 -51 179 -107 390 -66
247 -99 387 -93 393 10 10 486 287 490 285 1 -1 65 -111 142 -244z m-3254 178
c32 -33 57 -61 54 -64 -2 -2 -80 -24 -172 -49 l-169 -44 108 108 c60 60 111
109 114 109 3 0 32 -27 65 -60z m608 -157 c-69 -120 -129 -222 -133 -227 -5
-5 -76 59 -159 143 -134 133 -148 151 -128 156 12 4 135 37 272 74 138 38 255
69 262 70 6 1 -45 -97 -114 -216z m2839 147 c145 -39 271 -73 280 -76 13 -4
-19 -42 -133 -156 -83 -83 -154 -147 -159 -142 -11 13 -259 444 -255 444 3 0
123 -32 267 -70z m642 -39 l108 -108 -169 44 c-92 25 -170 47 -172 49 -5 5
110 124 119 124 3 0 54 -49 114 -109z m-5755 -200 c-43 -162 -80 -296 -82
-298 -4 -4 -591 -162 -593 -159 -1 0 61 108 136 239 l138 239 239 138 c131 75
239 137 239 136 1 0 -33 -133 -77 -295z m7434 141 l209 -120 137 -239 c76
-131 138 -239 137 -239 -2 -3 -589 155 -593 159 -2 3 -37 128 -77 278 -40 151
-76 285 -81 298 l-7 24 33 -21 c19 -11 128 -74 242 -140z m-5491 -169 l166
-168 -161 -277 c-88 -153 -164 -278 -167 -278 -7 0 -453 770 -448 774 5 5 412
114 428 115 8 1 90 -74 182 -166z m3751 111 c117 -31 214 -58 215 -60 5 -4
-441 -774 -448 -774 -3 0 -79 125 -167 278 l-161 277 166 168 c92 92 170 167
175 167 4 0 103 -25 220 -56z m-2350 -274 c119 -69 217 -127 217 -130 0 -3
-33 -24 -73 -47 -39 -23 -208 -120 -374 -216 -167 -96 -303 -174 -303 -172 0
3 84 317 191 718 l10 38 58 -33 c32 -18 155 -89 274 -158z m992 -203 c52 -198
95 -360 95 -362 0 -2 -136 76 -302 172 -167 96 -336 193 -375 216 -40 23 -73
44 -73 47 0 3 123 76 273 162 232 135 273 155 279 140 4 -9 50 -178 103 -375z
m-3262 260 c-65 -64 -122 -117 -127 -119 -5 -2 -20 34 -32 78 l-22 82 147 40
c80 21 147 38 149 37 1 -1 -51 -54 -115 -118z m435 -262 c122 -211 222 -387
222 -390 0 -3 -147 -4 -327 -3 l-326 3 -60 228 -61 228 160 160 c87 87 161
159 164 159 4 0 106 -173 228 -385z m4616 226 l160 -160 -61 -228 -60 -228
-326 -3 c-180 -1 -327 0 -327 3 0 10 444 775 450 775 3 0 77 -72 164 -159z
m182 88 l42 -11 -22 -79 c-11 -43 -25 -79 -31 -78 -8 0 -245 227 -245 235 0 1
48 -11 108 -27 59 -16 126 -34 148 -40z m-6809 34 c-2 -5 -59 -103 -125 -219
l-122 -211 -60 -17 c-136 -37 -882 -236 -888 -236 -8 0 1181 688 1191 689 5 1
6 -2 4 -6z m8849 -338 c329 -190 595 -345 592 -345 -6 0 -752 199 -888 236
l-60 17 -122 211 c-66 116 -123 214 -125 219 -2 4 -2 7 0 7 3 0 274 -155 603
-345z m-7476 173 l27 -96 -219 -219 -218 -218 2 269 3 269 175 48 c96 26 181
47 189 46 9 -1 24 -38 41 -99z m5725 54 l180 -49 3 -269 2 -269 -218 218 -219
219 24 86 c30 110 31 112 40 112 4 0 89 -22 188 -48z m-6185 -347 l0 -285
-286 0 -285 0 7 23 c4 12 31 111 60 221 29 109 55 200 57 203 3 2 103 30 223
63 121 32 220 59 222 59 1 1 2 -127 2 -284z m6699 209 c90 -24 165 -45 168
-47 2 -3 28 -94 57 -203 29 -110 56 -209 60 -221 l7 -23 -285 0 -286 0 0 284
0 284 58 -15 c31 -8 131 -35 221 -59z m-4840 -492 c-238 -1 -434 0 -436 2 -3
2 67 128 154 280 l158 275 278 -277 277 -277 -431 -3z m2984 281 c87 -150 157
-274 157 -277 0 -4 -197 -6 -437 -6 l-438 0 280 280 c153 153 280 278 280 277
1 -1 72 -124 158 -274z m-5357 125 c-3 -13 -29 -110 -57 -215 l-53 -193 -328
0 -328 0 30 53 c17 28 52 89 77 133 l47 81 295 80 c163 44 302 81 310 82 9 1
12 -6 7 -21z m7770 -63 l290 -78 47 -81 c25 -44 60 -105 77 -133 l30 -53 -328
0 -328 0 -53 193 c-28 105 -54 203 -58 216 -5 20 -3 23 13 19 10 -3 150 -40
310 -83z m-4079 -342 c-2 -2 -165 -2 -362 -1 l-358 3 359 207 359 207 3 -206
c1 -113 1 -208 -1 -210z m423 212 c190 -109 349 -202 355 -207 5 -4 -154 -8
-353 -8 l-362 0 0 211 c0 115 3 208 8 206 4 -2 162 -93 352 -202z m-3042 -3
c29 -108 53 -200 52 -204 0 -5 -118 -8 -262 -8 l-263 0 205 205 c113 113 207
205 210 205 3 0 29 -89 58 -198z m5572 -7 l205 -205 -263 0 c-144 0 -262 3
-262 8 -1 15 105 402 110 402 3 0 97 -92 210 -205z m-7399 -81 l-69 -119 -384
-2 c-252 -1 -373 2 -353 8 57 18 870 236 873 234 1 -1 -29 -56 -67 -121z
m9444 -25 c187 -50 342 -93 344 -95 3 -2 -168 -3 -378 -2 l-383 3 -69 119
c-38 65 -69 120 -69 121 0 2 48 -10 108 -26 59 -16 260 -70 447 -120z m-9563
-181 c-11 -18 -32 -55 -47 -83 -16 -27 -30 -51 -31 -53 -2 -3 -595 153 -619
162 -5 3 153 5 353 5 l364 1 -20 -32z m747 20 c-2 -36 -96 -353 -104 -352 -18
3 -660 176 -663 179 -4 4 8 28 60 118 l39 67 334 0 c262 0 335 -3 334 -12z
m379 -205 l-218 -217 -95 24 c-53 13 -98 27 -101 32 -4 6 71 308 91 366 3 9
67 12 272 12 l268 0 -217 -217z m898 190 c4 -16 51 -192 105 -393 53 -201 96
-366 96 -367 -1 0 -166 43 -367 96 -201 54 -377 101 -392 105 l-28 6 0 290 0
290 290 0 290 0 6 -27z m684 23 c0 -2 -91 -161 -201 -352 -111 -192 -206 -359
-212 -371 -6 -13 -13 -23 -17 -23 -4 0 -41 129 -83 288 -42 158 -88 326 -101
375 l-24 87 319 0 c175 0 319 -2 319 -4z m929 0 c-8 -7 -599 -347 -612 -352
-9 -3 -46 51 -113 167 -54 95 -100 176 -102 181 -2 4 184 8 414 8 229 0 415
-2 413 -4z m931 -376 l0 -380 -187 187 c-104 104 -275 275 -381 381 l-193 192
381 0 380 0 0 -380z m628 188 c-106 -106 -277 -277 -380 -381 l-188 -187 0
380 0 380 380 0 381 0 -193 -192z m1190 184 c-1 -5 -48 -86 -102 -181 -67
-116 -104 -170 -113 -167 -13 5 -604 345 -612 352 -2 2 184 4 413 4 230 0 416
-4 414 -8z m716 -79 c-13 -49 -59 -217 -101 -375 -42 -159 -79 -288 -83 -288
-4 0 -11 10 -17 23 -6 12 -101 179 -212 371 -110 191 -201 350 -201 352 0 2
144 4 319 4 l319 0 -24 -87z m656 -203 l0 -290 -27 -6 c-16 -4 -192 -51 -393
-105 -201 -53 -366 -96 -367 -96 0 1 43 166 96 367 54 201 101 377 105 393 l6
27 290 0 290 0 0 -290z m682 105 c26 -99 46 -185 44 -191 -2 -5 -47 -21 -100
-34 l-96 -24 -218 217 -217 217 269 -2 269 -3 49 -180z m731 92 c27 -48 48
-89 46 -91 -4 -4 -644 -177 -664 -180 -8 -1 -102 316 -104 352 -1 10 69 12
335 10 l337 -3 50 -88z m722 87 c-24 -9 -617 -165 -619 -162 -1 2 -15 26 -31
53 -15 28 -36 65 -47 83 l-20 32 364 -1 c200 0 359 -2 353 -5z m-7031 -198
c55 -96 100 -178 100 -182 1 -6 -607 -364 -619 -364 -2 0 90 162 203 360 114
197 209 359 212 359 3 0 50 -78 104 -173z m732 -226 c-56 -212 -118 -443 -137
-513 -22 -83 -37 -124 -42 -115 -4 7 -91 156 -191 330 l-184 318 202 116 c110
64 257 150 326 190 69 40 126 69 127 66 2 -4 -44 -180 -101 -392z m735 -629
l-231 -232 -308 82 c-169 45 -311 85 -315 89 -6 6 252 1008 279 1080 3 9 138
-119 406 -387 l401 -401 -232 -231z m1258 480 c79 -293 139 -537 134 -541 -4
-4 -146 -44 -315 -89 l-308 -82 -231 232 -232 231 399 399 c219 219 401 395
405 391 4 -4 70 -247 148 -541z m266 344 c160 -92 293 -169 296 -171 5 -3
-283 -514 -368 -652 -5 -9 -20 32 -42 115 -19 70 -81 301 -137 513 -57 212
-104 389 -104 393 0 5 15 0 33 -11 17 -11 163 -95 322 -187z m797 -155 c113
-198 205 -360 203 -360 -12 0 -618 357 -618 363 0 12 197 356 203 356 3 0 98
-162 212 -359z m-5267 -168 c-4 -5 -394 97 -405 105 -2 2 88 96 200 208 l205
205 3 -256 c1 -142 0 -259 -3 -262z m6835 108 c0 -5 -387 -111 -402 -110 -5 0
-8 118 -8 262 l0 263 205 -205 c113 -113 205 -207 205 -210z m-8342 235 c10
-4 3 -24 -25 -75 -21 -38 -41 -70 -45 -70 -7 0 -508 288 -521 300 -6 5 546
-139 591 -155z m10037 156 c-14 -12 -516 -301 -523 -301 -7 0 -86 139 -80 141
4 1 602 166 608 168 2 0 0 -3 -5 -8z m-10380 -206 c132 -76 242 -140 243 -141
5 -3 -72 -144 -78 -144 -3 0 -106 102 -230 227 -124 124 -214 219 -200 211 14
-8 133 -77 265 -153z m10195 -60 c-124 -124 -227 -225 -230 -225 -6 0 -83 141
-78 144 1 1 111 65 243 141 132 75 249 144 260 151 11 8 22 14 25 14 2 0 -96
-101 -220 -225z m-10081 -319 c-12 -22 -35 -61 -50 -85 l-27 -44 -25 44 c-156
268 -337 583 -337 586 0 1 104 -101 231 -228 l232 -231 -24 -42z m10185 228
c-85 -148 -167 -289 -181 -313 l-25 -44 -27 44 c-15 24 -38 63 -50 85 l-24 42
229 229 c126 126 230 229 231 228 2 -1 -67 -123 -153 -271z m-10472 -97 c98
-170 177 -316 174 -322 -2 -7 -34 -63 -69 -125 l-66 -112 -11 43 c-6 24 -59
220 -116 434 -58 215 -107 399 -110 410 -5 19 -4 19 7 1 6 -10 92 -158 191
-329z m10557 -107 c-65 -244 -119 -446 -119 -449 0 -3 -32 49 -71 117 -39 67
-69 126 -67 131 6 16 373 649 375 647 1 -1 -52 -202 -118 -446z m-10869 -327
l-5 -748 -351 -605 c-193 -333 -358 -618 -367 -635 -22 -41 -21 -24 4 65 11
41 87 325 169 630 82 305 228 852 326 1215 97 363 186 697 197 743 12 45 24
82 27 82 3 0 3 -336 0 -747z m190 280 c66 -248 120 -457 120 -464 0 -10 -156
-288 -232 -414 -17 -29 -18 -10 -17 660 0 380 2 686 4 680 2 -5 58 -213 125
-462z m10848 -557 l-3 -345 -122 213 c-68 117 -123 217 -123 222 -1 5 55 217
122 471 l123 461 3 -338 c1 -186 1 -494 0 -684z m89 942 c11 -46 100 -380 197
-743 98 -363 244 -910 326 -1215 82 -305 158 -589 169 -630 25 -89 26 -106 4
-65 -9 17 -174 302 -367 635 l-351 605 -5 748 c-3 411 -3 747 0 747 3 0 15
-37 27 -82z m-9612 -116 c57 -15 70 -22 68 -38 -3 -39 -88 -344 -96 -344 -6 0
-661 375 -676 387 -5 3 25 60 65 124 l23 36 273 -73 c150 -41 305 -82 343 -92z
m8734 87 c23 -39 41 -74 41 -77 -1 -8 -653 -385 -673 -390 -8 -2 -27 55 -55
160 -24 90 -44 171 -45 182 -2 16 41 30 338 111 187 50 343 90 347 88 3 -2 25
-35 47 -74z m-8447 -173 c0 -8 -233 -248 -237 -244 -1 2 16 69 37 149 l40 147
80 -22 c44 -12 79 -25 80 -30z m7707 -138 c16 -60 28 -108 27 -108 -6 0 -238
239 -239 246 -1 4 34 18 78 29 l80 22 13 -41 c7 -22 25 -89 41 -148z m-8389
-10 c173 -100 321 -186 327 -192 10 -9 -17 -42 -120 -144 l-132 -132 -254 254
-253 253 44 76 c30 54 47 75 58 71 8 -3 157 -87 330 -186z m2997 -98 c90 -157
175 -304 189 -327 14 -24 19 -41 12 -38 -7 3 -233 63 -503 135 -269 71 -498
133 -508 138 -13 5 63 54 305 194 178 103 327 186 332 184 5 -1 83 -130 173
-286z m3373 100 c241 -139 316 -187 303 -192 -10 -5 -238 -67 -508 -138 -269
-72 -496 -132 -503 -135 -9 -3 -7 6 6 28 11 17 88 151 172 297 192 334 191
332 201 328 4 -2 152 -86 329 -188z m2878 113 l44 -76 -253 -253 -254 -254
-132 132 c-73 73 -129 136 -124 141 11 11 664 387 671 387 3 0 25 -35 48 -77z
m-8253 -42 l220 -58 3 -328 c2 -260 0 -326 -10 -322 -16 6 -760 435 -767 443
-7 6 311 324 324 324 5 0 109 -26 230 -59z m7270 -101 c87 -87 157 -162 154
-164 -7 -8 -751 -437 -767 -443 -10 -4 -12 62 -10 322 l3 328 215 58 c118 32
222 58 230 58 8 1 87 -71 175 -159z m-6532 -97 c158 -42 287 -79 287 -83 0 -4
-10 -11 -23 -17 -12 -6 -179 -101 -371 -212 -191 -110 -350 -201 -352 -201 -2
0 -4 144 -4 319 l0 319 88 -24 c48 -13 216 -59 375 -101z m5854 -510 c-2 -2
-168 91 -368 207 -200 115 -368 212 -374 214 -5 2 -8 6 -5 9 3 3 172 49 375
104 l370 99 3 -315 c1 -173 1 -316 -1 -318z m-7681 0 c-72 -73 -133 -133 -136
-133 -7 0 -324 547 -328 566 -2 8 20 54 48 104 l51 89 248 -247 249 -247 -132
-132z m9463 538 c28 -48 51 -93 51 -99 0 -10 -314 -559 -326 -571 -3 -3 -65
55 -138 128 l-134 134 247 247 c135 137 247 249 248 249 1 1 24 -39 52 -88z
m-8573 -363 c211 -122 384 -225 384 -228 0 -3 -125 -79 -277 -167 l-278 -161
-169 168 -169 168 59 221 c32 122 60 221 62 221 2 0 176 -100 388 -222z m1904
77 c283 -76 518 -141 522 -144 7 -6 -144 -592 -160 -620 -9 -16 -623 -184
-633 -173 -6 6 -273 997 -287 1061 -6 30 -68 43 558 -124z m4018 123 c-14 -65
-282 -1054 -287 -1060 -6 -7 -592 144 -620 160 -16 9 -184 623 -173 633 4 4
239 68 522 144 283 75 517 139 519 141 2 2 13 4 24 4 15 0 18 -5 15 -22z
m1796 -199 l59 -221 -169 -168 -169 -168 -277 161 c-153 88 -278 164 -278 167
0 6 759 449 770 450 3 0 32 -99 64 -221z m-8937 -89 l153 -265 -153 -156 c-83
-86 -154 -157 -157 -157 -3 -1 -42 136 -87 306 l-82 307 76 133 c65 114 78
131 86 115 6 -10 80 -137 164 -283z m9957 168 l75 -133 -82 -307 c-45 -170
-84 -307 -87 -306 -3 0 -74 71 -157 157 l-152 156 162 282 c89 156 163 283
163 283 1 0 36 -60 78 -132z m-7691 -203 c-98 -170 -182 -308 -186 -308 -12 0
-356 197 -356 203 0 6 712 417 717 415 1 -1 -77 -141 -175 -310z m387 -210
c72 -269 133 -496 135 -503 3 -9 -6 -7 -28 6 -17 11 -162 95 -322 187 -159 91
-294 170 -298 175 -5 4 76 154 180 334 141 244 190 322 195 309 5 -10 67 -238
138 -508z m2168 137 l-3 -128 -203 55 -203 55 203 203 203 203 3 -130 c1 -71
1 -188 0 -258z m469 -18 c-1 -1 -72 -21 -157 -44 -85 -23 -176 -48 -202 -55
l-48 -14 0 262 0 262 205 -205 c112 -112 203 -205 202 -206z m2098 77 c103
-178 183 -327 178 -331 -4 -5 -138 -84 -298 -175 -159 -92 -305 -176 -322
-187 -22 -13 -31 -15 -28 -6 2 7 63 234 135 503 144 541 141 528 145 523 2 -2
87 -149 190 -327z m594 -91 c0 -6 -344 -203 -356 -203 -6 0 -363 606 -363 618
0 2 162 -90 360 -203 197 -114 359 -209 359 -212z m-7267 233 c-24 -93 -46
-170 -48 -173 -3 -2 -33 24 -67 58 l-62 62 110 110 c60 60 110 110 111 110 0
0 -19 -75 -44 -167z m8391 -115 c-34 -34 -64 -60 -67 -58 -2 3 -24 81 -49 174
l-44 168 111 -111 111 -111 -62 -62z m-8527 -53 c40 -41 71 -81 69 -88 -3 -6
-36 -131 -75 -277 -39 -146 -74 -273 -78 -283 -5 -13 -40 38 -141 214 l-134
231 139 139 c76 76 141 139 143 139 2 0 37 -34 77 -75z m3454 -5 c145 -39 266
-73 268 -75 5 -5 -286 -295 -296 -295 -4 0 -29 40 -56 88 -28 48 -85 147 -128
221 -43 74 -78 135 -78 137 0 2 6 1 13 -1 6 -2 131 -36 277 -75z m1852 -61
c-43 -74 -100 -173 -128 -221 -27 -48 -52 -88 -56 -88 -10 0 -301 290 -296
295 5 5 552 153 556 150 1 -1 -33 -62 -76 -136z m3462 2 l139 -139 -134 -231
c-101 -176 -136 -227 -141 -214 -4 10 -39 137 -78 283 -39 146 -72 271 -75
277 -4 11 131 162 145 163 3 0 68 -63 144 -139z m-9619 -229 l68 -253 -216
-218 -217 -217 0 277 0 277 137 238 137 238 12 -45 c6 -24 42 -158 79 -297z
m4152 20 c42 -73 74 -134 72 -136 -8 -7 -390 -107 -398 -104 -5 2 22 116 59
253 37 138 70 263 74 279 7 29 9 26 62 -65 31 -52 90 -154 131 -227z m2207 37
c40 -151 70 -275 65 -277 -8 -3 -391 97 -398 104 -2 2 54 105 125 228 71 124
130 224 131 222 2 -1 36 -126 77 -277z m4125 38 l131 -229 0 -277 0 -277 -217
217 -216 218 79 295 c43 162 82 292 85 288 4 -4 66 -110 138 -235z m-5668 57
c96 -25 179 -49 186 -53 6 -3 -126 -43 -295 -88 -169 -45 -316 -85 -327 -89
-11 -4 43 57 120 135 77 77 140 141 141 141 1 0 80 -21 175 -46z m934 -95 c77
-78 131 -139 120 -135 -11 4 -158 44 -327 89 -168 45 -305 84 -302 86 4 4 341
98 359 100 6 0 73 -63 150 -140z m-4492 -189 c-12 -12 -443 -259 -443 -255 0
4 136 515 146 547 4 13 41 -18 156 -133 82 -83 146 -155 141 -159z m657 -127
l0 -438 -279 279 -280 280 147 84 c81 47 203 118 272 158 69 40 128 73 133 74
4 0 7 -197 7 -437z m239 333 c116 -67 170 -104 167 -113 -5 -13 -345 -604
-352 -612 -2 -2 -4 184 -4 413 0 230 4 416 8 414 5 -1 86 -48 181 -102z m6131
-313 c0 -408 -1 -417 -18 -388 -100 165 -343 597 -339 601 9 9 341 202 350
203 4 1 7 -187 7 -416z m333 260 c150 -86 273 -157 274 -158 1 0 -124 -127
-277 -280 l-280 -280 0 438 c0 240 2 437 6 437 3 0 127 -70 277 -157z m747
-141 c38 -144 70 -264 70 -267 0 -4 -431 243 -443 255 -5 4 58 75 140 157 115
117 150 146 155 134 4 -9 39 -134 78 -279z m-4270 -604 c0 -430 -2 -779 -4
-777 -7 9 -766 1327 -771 1340 -4 11 81 37 372 115 208 56 384 102 391 103 9
1 12 -161 12 -781z m464 677 c290 -77 375 -103 371 -114 -5 -13 -764 -1331
-771 -1340 -2 -2 -4 348 -4 778 0 661 2 782 14 779 7 -2 183 -48 390 -103z
m-4955 -159 c72 -126 130 -230 129 -231 -20 -18 -480 -276 -484 -272 -4 3 -32
102 -64 219 l-57 213 161 162 c124 126 163 160 172 150 6 -6 70 -115 143 -241z
m9515 -80 c-2 -6 -28 -102 -58 -214 -30 -112 -57 -206 -60 -209 -4 -4 -464
254 -484 272 -2 2 228 405 265 464 15 24 15 24 178 -139 90 -90 161 -168 159
-174z m-7096 -143 c9 -5 -32 -20 -115 -42 -70 -19 -301 -81 -513 -137 -212
-57 -388 -103 -392 -101 -3 1 26 58 66 127 40 69 126 216 190 326 l116 202
318 -184 c174 -100 323 -187 330 -191z m5043 44 c103 -177 184 -323 180 -324
-3 -2 -179 44 -391 101 -212 56 -443 118 -513 137 -83 22 -124 37 -115 42 119
73 644 372 648 369 3 -2 89 -148 191 -325z m-6466 -72 c156 -156 281 -286 277
-288 -4 -3 -180 -51 -390 -107 -242 -64 -387 -99 -393 -93 -6 6 -72 118 -148
250 l-138 240 241 141 c133 77 247 141 254 141 6 1 140 -127 297 -284z m7602
141 l240 -139 -138 -240 c-76 -132 -142 -244 -148 -250 -6 -6 -151 29 -393 93
-210 56 -386 104 -390 107 -12 7 556 572 573 570 8 -1 124 -65 256 -141z
m-5261 -110 c-130 -130 -237 -236 -239 -236 -2 0 19 84 47 187 l51 188 185 50
c102 28 187 50 188 49 2 -1 -102 -109 -232 -238z m716 -428 c214 -369 386
-673 385 -675 -3 -2 -1333 762 -1347 774 -4 4 561 573 570 573 3 0 179 -303
392 -672z m1618 387 c156 -156 282 -286 280 -288 -14 -12 -1344 -776 -1347
-774 -4 5 770 1347 777 1347 3 0 133 -128 290 -285z m226 -8 c28 -103 49 -187
47 -187 -4 0 -473 468 -473 473 0 2 84 -19 187 -47 l188 -51 51 -188z m-6926
-22 l-5 -254 -343 -344 c-188 -189 -341 -340 -340 -336 7 20 684 1188 688
1189 3 0 3 -115 0 -255z m11445 -336 c187 -325 341 -594 343 -598 1 -4 -152
147 -340 336 l-343 344 -5 254 c-3 140 -3 255 0 255 3 -1 158 -266 345 -591z
m-7335 319 c-29 -106 -54 -195 -56 -197 -2 -2 -105 54 -228 125 -124 71 -223
130 -222 132 10 9 552 148 554 141 2 -4 -20 -95 -48 -201z m3139 128 c134 -36
245 -67 247 -68 1 -2 -98 -61 -222 -132 -123 -71 -226 -127 -228 -125 -5 5
-106 383 -106 397 0 7 10 8 33 1 17 -4 142 -38 276 -73z m-6679 -155 c45 -170
51 -205 39 -212 -8 -4 -133 -78 -279 -162 l-265 -154 -3 151 -3 150 223 223
c122 122 225 219 229 215 3 -4 30 -99 59 -211z m10468 -377 l-3 -151 -265 154
c-146 84 -271 158 -279 162 -12 8 -6 41 38 207 28 110 54 206 57 214 3 9 80
-61 230 -211 l225 -225 -3 -150z m-7441 119 l84 -312 -232 -232 -231 -232
-399 399 c-219 219 -396 401 -393 404 8 8 1057 289 1073 287 11 -2 40 -95 98
-314z m4537 176 c292 -78 534 -144 538 -148 4 -4 -172 -186 -391 -405 l-399
-399 -231 232 -232 232 81 302 c89 335 87 327 96 327 4 0 246 -64 538 -141z
m-7061 -184 l-78 -289 -100 -28 c-55 -15 -103 -24 -106 -20 -14 15 -103 376
-94 379 6 2 109 62 230 132 121 70 221 125 223 122 1 -3 -33 -136 -75 -296z
m2638 227 c74 -43 173 -100 221 -128 48 -27 88 -52 88 -56 0 -10 -290 -301
-295 -296 -2 2 -36 123 -75 268 -39 146 -73 271 -75 278 -2 6 -3 12 -1 12 2 0
63 -35 137 -78z m3814 66 c-2 -7 -36 -132 -75 -278 -39 -145 -73 -266 -75
-268 -5 -5 -295 286 -295 296 0 4 73 49 163 99 89 51 187 108 217 127 61 38
71 42 65 24z m2884 -254 c5 -5 -89 -366 -98 -376 -3 -4 -51 5 -106 20 l-100
28 -77 284 c-42 157 -77 290 -77 297 -1 9 431 -230 458 -253z m-9065 15 c68
-118 123 -215 121 -217 -8 -9 -401 -107 -403 -101 -6 16 142 549 150 541 5 -5
64 -105 132 -223z m8626 -42 c39 -147 70 -271 68 -276 -2 -6 -394 92 -403 101
-2 2 52 98 119 213 138 239 137 237 141 233 2 -2 35 -124 75 -271z m-9319 -49
c77 -281 86 -320 74 -324 -7 -3 -159 -45 -339 -93 l-327 -88 3 110 3 110 280
162 c154 90 283 164 287 164 4 1 12 -18 19 -41z m1441 -333 c-120 -206 -219
-375 -222 -375 -7 0 -320 544 -315 548 4 4 725 199 742 201 6 0 -86 -168 -205
-374z m2683 -18 l662 -382 -775 -3 c-426 -1 -777 -1 -779 1 -2 2 43 178 99
390 79 297 106 386 117 382 7 -3 312 -177 676 -388z m2343 6 c56 -212 101
-388 99 -390 -2 -2 -353 -2 -779 -1 l-775 3 671 387 c369 214 673 388 676 388
3 0 51 -174 108 -387z m2039 292 c197 -53 366 -99 375 -103 15 -6 -6 -48 -140
-279 -86 -150 -159 -273 -162 -273 -3 0 -102 169 -222 375 -119 206 -215 375
-213 375 2 0 164 -43 362 -95z m1595 -69 l283 -163 3 -110 3 -110 -327 88
c-180 48 -332 90 -339 93 -12 4 -3 43 74 324 7 23 14 42 16 42 2 0 131 -74
287 -164z m-7789 -428 l187 -188 -380 0 -380 0 0 380 0 381 192 -193 c106
-106 277 -277 381 -380z m5747 192 l0 -380 -380 0 -380 0 378 379 c207 209
378 380 380 380 1 1 2 -170 2 -379z m-8710 233 l0 -138 -283 -163 c-155 -89
-302 -174 -327 -188 -32 -19 50 69 280 300 179 179 326 326 327 326 2 0 3 -62
3 -137z m11430 -189 c230 -231 312 -319 280 -300 -25 14 -172 99 -327 188
l-283 163 0 138 c0 75 1 137 3 137 1 0 148 -147 327 -326z m-7454 146 c-23
-85 -62 -230 -87 -322 -24 -92 -47 -162 -50 -155 -4 7 -28 91 -53 187 l-47
174 138 138 c75 75 138 136 139 135 1 -1 -17 -72 -40 -157z m3338 -290 c-25
-96 -49 -180 -53 -187 -3 -6 -43 126 -88 295 -45 169 -85 316 -89 327 -4 11
57 -43 135 -120 l142 -141 -47 -174z m-4977 -277 c-2 -2 -97 -2 -210 -1 l-206
3 207 359 207 359 3 -358 c1 -197 1 -360 -1 -362z m6638 357 c109 -190 200
-348 202 -352 2 -5 -91 -8 -206 -8 l-211 0 0 362 c0 199 4 358 8 353 5 -6 98
-165 207 -355z m-7314 -80 l159 -275 -447 -3 c-245 -1 -447 -1 -449 1 -5 4
104 409 114 426 9 15 413 131 446 128 13 -2 64 -81 177 -277z m8172 223 c117
-31 217 -61 224 -67 11 -10 125 -427 119 -433 -2 -2 -204 -2 -449 -1 l-447 3
136 235 c74 129 146 254 160 278 14 23 29 42 35 42 6 0 105 -25 222 -57z
m-8884 -190 c-16 -60 -37 -136 -46 -171 -8 -34 -17 -61 -19 -60 -2 2 -19 63
-39 136 -19 72 -38 138 -41 146 -4 10 15 19 68 34 115 32 110 38 77 -85z
m9273 86 c58 -16 78 -25 74 -35 -3 -8 -22 -74 -41 -146 -20 -73 -37 -134 -39
-136 -2 -1 -11 26 -19 60 -9 35 -30 111 -46 171 -17 64 -24 107 -18 107 6 0
46 -10 89 -21z m-10224 -86 l-3 -96 -285 -77 c-157 -42 -296 -80 -310 -85 -14
-4 -22 -4 -18 0 10 11 601 354 611 354 4 1 6 -42 5 -96z m3742 -63 c23 -85 48
-176 55 -202 l14 -48 -262 0 -262 0 205 205 c112 112 205 203 206 202 1 -1 21
-72 44 -157z m3940 -248 c-71 -1 -188 -1 -258 0 l-128 3 55 203 54 203 204
-203 203 -203 -130 -3z m3728 237 c298 -173 339 -198 292 -183 -14 4 -153 42
-310 84 l-285 77 -3 96 c-1 54 0 97 3 97 3 0 139 -77 303 -171z m-10646 86 c4
-16 25 -96 47 -177 l39 -148 -394 0 -394 0 0 89 c0 77 3 90 18 95 9 3 145 39
302 81 157 42 296 80 310 85 42 15 63 8 72 -25z m9740 -1 c73 -19 205 -55 293
-79 88 -24 179 -48 203 -55 l42 -11 0 -89 0 -90 -394 0 -394 0 8 33 c92 346
86 327 99 327 6 0 70 -16 143 -36z m-10502 -244 l0 -80 -302 1 c-196 1 -291 4
-268 10 19 5 150 40 290 78 140 38 261 70 268 70 9 1 12 -21 12 -79z m11379 9
c146 -40 280 -75 296 -79 17 -5 -106 -8 -272 -9 l-303 -1 0 80 c0 44 3 80 6
80 4 0 127 -32 273 -71z m-11379 -229 c0 -44 -3 -80 -6 -80 -4 0 -127 32 -273
71 -146 40 -279 75 -296 79 -16 5 106 8 273 9 l302 1 0 -80z m809 -67 c-22
-82 -42 -161 -46 -176 -10 -47 25 -53 -458 78 -88 24 -179 48 -202 55 l-43 11
0 89 0 90 394 0 394 0 -39 -147z m1000 125 c-32 -60 -302 -524 -309 -532 -10
-10 -438 101 -457 118 -6 6 -34 99 -62 206 -29 107 -54 203 -57 213 -5 16 21
17 446 17 l451 0 -12 -22z m531 -340 c0 -199 -4 -358 -8 -352 -6 6 -351 603
-409 707 -2 4 91 7 206 7 l211 0 0 -362z m623 175 c-104 -104 -275 -275 -381
-381 l-192 -193 0 381 0 380 380 0 380 0 -187 -187z m832 140 c-7 -27 -32
-118 -55 -203 -23 -85 -43 -156 -44 -157 -1 -1 -94 90 -206 202 l-205 205 262
0 262 0 -14 -47z m1644 43 c-9 -7 -1327 -766 -1340 -771 -11 -4 -37 81 -114
371 -55 207 -101 383 -103 390 -3 12 118 14 779 14 430 0 780 -2 778 -4z
m1779 -10 c-2 -7 -48 -183 -103 -390 -77 -290 -103 -375 -114 -371 -13 5
-1331 764 -1340 771 -2 2 348 4 778 4 661 0 782 -2 779 -14z m392 -191 c-112
-112 -205 -203 -206 -202 -1 1 -21 72 -44 157 -23 85 -48 176 -55 203 l-14 47
262 0 262 0 -205 -205z m1100 -175 l0 -381 -192 193 c-106 106 -277 277 -381
381 l-187 187 380 0 380 0 0 -380z m467 373 c-58 -104 -403 -701 -409 -707 -4
-6 -8 153 -8 352 l0 362 211 0 c115 0 208 -3 206 -7z m999 -10 c-3 -10 -28
-106 -57 -213 -28 -107 -56 -200 -62 -206 -19 -17 -447 -128 -457 -118 -7 8
-277 472 -309 532 l-12 22 451 0 c425 0 451 -1 446 -17z m864 -73 l0 -89 -42
-11 c-24 -7 -115 -31 -203 -55 -370 -101 -429 -116 -440 -111 -7 2 -15 17 -18
33 -4 15 -24 94 -46 176 l-39 147 394 0 394 0 0 -90z m635 80 c-16 -4 -150
-39 -296 -79 -146 -39 -269 -71 -273 -71 -3 0 -6 36 -6 80 l0 80 303 -1 c166
-1 289 -4 272 -9z m-8224 -230 l230 -230 -82 -308 c-45 -169 -85 -311 -89
-315 -6 -6 -1008 252 -1079 279 -10 3 118 138 384 404 220 220 401 400 403
400 1 0 106 -104 233 -230z m4834 -170 c266 -266 394 -401 384 -404 -71 -27
-1073 -285 -1079 -279 -4 4 -44 146 -89 315 l-82 307 228 230 c125 126 230
230 233 230 3 1 185 -179 405 -399z m-6193 5 c119 -206 215 -375 213 -375 -9
0 -722 191 -737 198 -15 6 6 48 140 279 86 150 159 273 162 273 3 0 102 -169
222 -375z m7300 102 c134 -231 155 -273 140 -279 -15 -7 -728 -198 -737 -198
-2 0 94 169 213 375 120 206 219 375 222 375 3 0 76 -123 162 -273z m-9682
163 l285 -77 3 -96 c1 -54 0 -97 -3 -97 -8 0 -598 341 -610 353 -6 6 -1 6 15
1 14 -4 153 -42 310 -84z m5760 87 c0 -4 -771 -1340 -777 -1347 -2 -2 -133
126 -291 284 -158 158 -282 290 -277 293 6 2 307 177 670 388 614 356 675 391
675 382z m841 -386 c365 -211 666 -385 669 -388 2 -2 -125 -133 -283 -290
-157 -158 -288 -285 -290 -283 -7 8 -777 1343 -777 1348 0 6 -4 9 681 -387z
m5404 380 c-13 -11 -603 -351 -610 -351 -3 0 -4 43 -3 97 l3 96 285 77 c157
42 292 79 300 82 23 10 35 9 25 -1z m-10781 -199 c24 -86 39 -158 35 -160 -4
-2 -44 7 -89 19 -60 16 -80 25 -76 35 6 16 76 271 77 282 1 13 11 -18 53 -176z
m2995 -138 c44 -166 83 -310 87 -320 4 -10 -57 44 -135 122 l-142 140 36 135
c53 199 67 245 71 234 2 -5 39 -145 83 -311z m1588 -1241 c-2 -2 -178 43 -390
99 -297 79 -386 106 -382 117 3 7 177 312 388 676 l382 662 3 -775 c1 -426 1
-777 -1 -779z m451 891 c210 -364 384 -667 387 -675 4 -11 -81 -37 -371 -114
-207 -55 -383 -101 -390 -103 -12 -3 -14 118 -14 779 0 430 2 780 4 778 1 -2
175 -301 384 -665z m1346 466 l47 -174 -142 -141 c-78 -77 -139 -131 -135
-120 4 11 44 158 89 327 45 169 85 301 88 295 4 -7 28 -91 53 -187z m2941 62
c19 -72 38 -138 41 -146 4 -10 -16 -19 -76 -35 -45 -12 -85 -21 -89 -19 -4 2
13 78 37 171 25 92 47 166 48 164 2 -1 19 -62 39 -135z m-10538 -94 l283 -163
0 -137 c0 -76 -1 -138 -3 -138 -1 0 -148 147 -327 326 -230 231 -312 319 -280
300 25 -14 172 -99 327 -188z m12033 209 c0 -1 -146 -148 -325 -327 l-325
-325 0 140 0 140 323 187 c334 194 327 190 327 185z m-11750 -982 c3 -140 3
-255 0 -255 -4 1 -681 1170 -688 1189 -1 4 152 -147 340 -336 l343 -344 5
-254z m11448 342 c-189 -328 -345 -596 -348 -597 -3 0 -3 115 0 255 l5 254
340 343 c187 189 341 342 343 342 2 -1 -151 -270 -340 -597z m-11804 -87 l351
-605 5 -748 c3 -411 3 -747 0 -747 -3 0 -15 37 -27 83 -11 45 -100 379 -197
742 -98 363 -244 910 -326 1215 -82 305 -158 589 -169 630 -25 89 -26 106 -4
65 9 -16 174 -302 367 -635z m12176 573 c-12 -43 -88 -328 -170 -633 -82 -305
-228 -852 -326 -1215 -97 -363 -186 -697 -197 -742 -12 -46 -24 -83 -27 -83
-3 0 -3 336 0 747 l5 748 354 610 c194 336 358 620 364 633 20 43 18 13 -3
-65z m-11095 -157 c9 -3 0 -51 -35 -181 -27 -97 -50 -179 -53 -181 -2 -3 -132
69 -288 159 l-284 164 -3 110 -3 110 327 -88 c180 -48 332 -90 339 -93z
m10308 -37 c-17 -16 -566 -329 -570 -325 -3 2 -26 84 -53 181 -36 133 -45 178
-35 181 7 3 159 44 336 92 l324 87 3 -104 c1 -57 -1 -108 -5 -112z m-10118
-12 l80 -23 77 -284 c42 -157 77 -290 77 -297 1 -9 -431 230 -458 253 -4 4 87
361 96 377 5 8 9 7 128 -26z m9449 -160 c27 -103 48 -189 45 -191 -27 -23
-459 -262 -458 -253 0 7 35 140 77 297 l77 285 95 26 c52 15 99 26 105 25 5
-1 32 -87 59 -189z m-9070 59 c93 -25 170 -47 171 -48 3 -4 -241 -428 -253
-440 -7 -7 -152 506 -152 539 0 8 10 9 33 3 17 -5 108 -30 201 -54z m8675
-226 c-40 -150 -76 -267 -81 -262 -12 12 -256 436 -253 440 8 9 401 107 403
101 2 -5 -29 -130 -69 -279z m-9616 111 c147 -85 267 -159 267 -164 0 -10 -96
-376 -106 -406 -3 -10 -81 61 -229 209 l-225 225 0 153 c0 124 2 152 13 145 8
-4 134 -77 280 -162z m10465 -358 c-122 -122 -225 -219 -229 -215 -3 4 -30 99
-59 211 -45 170 -51 205 -39 212 8 4 133 78 279 162 l265 154 3 -151 3 -150
-223 -223z m-6942 372 c79 -80 144 -149 144 -153 0 -4 -40 -29 -88 -56 -48
-28 -147 -85 -221 -128 -74 -43 -135 -77 -136 -76 -1 2 24 100 56 218 32 118
65 243 75 278 9 34 18 62 21 62 2 0 69 -65 149 -145z m3518 83 c10 -35 43
-160 75 -278 32 -118 57 -216 56 -218 -1 -1 -62 33 -136 76 -74 43 -173 100
-221 128 -48 27 -88 52 -88 56 0 8 282 296 291 297 4 1 14 -27 23 -61z m-5483
-148 c206 -55 380 -102 387 -105 16 -6 -554 -577 -572 -573 -7 2 -121 66 -253
142 l-240 139 129 226 c154 268 156 271 166 271 5 0 177 -45 383 -100z m7815
-151 l141 -246 -240 -139 c-132 -76 -246 -140 -253 -142 -7 -2 -142 126 -299
283 -223 223 -283 288 -268 292 230 65 743 200 757 199 15 -1 57 -65 162 -247z
m-8799 -130 c125 -72 229 -132 231 -134 3 -3 -258 -456 -272 -472 -9 -10 -48
24 -172 150 l-161 162 47 175 c26 96 53 195 59 218 9 31 16 42 26 38 8 -3 117
-64 242 -137z m1893 37 c212 -56 443 -118 513 -137 83 -22 124 -37 115 -42
-138 -85 -649 -373 -652 -368 -2 3 -79 137 -171 296 -92 160 -176 305 -187
323 -11 17 -16 32 -11 32 4 0 181 -47 393 -104z m1290 -96 c29 -110 51 -202
49 -204 -4 -3 -549 140 -554 146 -4 4 437 258 446 258 3 0 30 -90 59 -200z
m3167 73 c122 -71 220 -129 219 -131 -6 -6 -551 -149 -555 -146 -6 5 101 404
108 404 3 0 106 -57 228 -127z m1385 95 c-11 -18 -95 -163 -187 -323 -92 -159
-169 -293 -171 -296 -3 -5 -513 283 -652 368 -9 5 70 30 210 67 122 33 351 95
508 137 157 43 291 78 298 78 10 1 8 -8 -6 -31z m1779 -10 c6 -24 33 -122 59
-218 l47 -175 -161 -162 c-124 -126 -163 -160 -172 -150 -14 16 -275 469 -272
472 11 9 474 275 480 275 4 0 12 -19 19 -42z m-10016 -670 c-37 -139 -73 -273
-79 -297 l-12 -45 -137 238 -137 238 0 277 0 277 217 -217 216 -218 -68 -253z
m1911 -175 c-2 -3 -128 67 -280 154 l-275 158 277 278 277 277 3 -431 c1 -238
0 -434 -2 -436z m6981 312 c-33 -22 -548 -315 -551 -315 -4 0 -6 197 -6 437
l0 438 280 -280 c153 -153 278 -280 277 -280z m1586 -241 l-137 -238 -12 45
c-6 24 -42 158 -79 297 l-68 253 214 217 214 217 3 -276 2 -276 -137 -239z
m-6538 531 c129 -129 235 -236 235 -238 0 -2 -84 19 -187 47 l-188 51 -51 188
c-28 103 -49 187 -47 187 2 0 109 -106 238 -235z m2561 48 l-51 -188 -188 -51
c-103 -28 -187 -49 -187 -47 0 6 465 471 471 472 3 1 -17 -83 -45 -186z
m-4357 -125 c94 -164 174 -304 177 -311 3 -9 -51 -46 -167 -113 -95 -54 -176
-100 -181 -102 -4 -2 -8 184 -8 414 0 229 2 415 4 413 2 -2 81 -138 175 -301z
m6138 -525 c-4 -3 -342 189 -354 201 -3 3 75 145 173 315 l179 310 3 -411 c1
-226 1 -413 -1 -415z m-4837 502 c157 -41 291 -79 299 -83 16 -9 184 -623 173
-633 -6 -6 -997 -273 -1061 -287 -21 -4 -23 -2 -19 19 6 30 277 1039 283 1057
3 7 13 11 22 8 10 -3 146 -39 303 -81z m3822 -436 c170 -634 157 -573 127
-567 -65 14 -1055 281 -1061 287 -7 6 144 592 160 620 8 14 605 182 627 177 5
-1 71 -234 147 -517z m-6009 241 c5 -4 -59 -76 -141 -159 -115 -115 -152 -146
-156 -133 -10 32 -146 543 -146 547 0 4 431 -243 443 -255z m1802 248 c-3 -7
-63 -233 -135 -503 -71 -269 -133 -498 -138 -508 -5 -13 -54 65 -195 309 -104
180 -185 330 -180 334 6 7 643 378 650 380 1 0 0 -6 -2 -12z m4480 -193 c160
-91 294 -170 298 -175 5 -4 -76 -154 -180 -334 -141 -244 -190 -322 -195 -309
-5 10 -67 239 -138 508 -72 270 -133 496 -135 503 -3 9 6 7 28 -6 17 -11 163
-95 322 -187z m1825 -66 c-39 -145 -73 -272 -76 -281 -4 -13 -41 18 -155 133
-83 83 -148 154 -144 157 10 10 440 259 443 257 1 -1 -29 -121 -68 -266z
m-8520 -49 c39 -146 72 -271 75 -277 2 -7 -30 -48 -71 -90 l-75 -77 -141 141
-141 141 134 231 c101 176 136 227 141 214 4 -10 39 -137 78 -283z m8790 51
l123 -213 -141 -141 -141 -141 -75 77 c-41 42 -73 83 -71 90 3 6 36 131 75
277 39 146 73 273 76 283 6 18 6 18 18 0 7 -10 68 -114 136 -232z m-5606 48
c105 -28 193 -53 195 -55 2 -2 -54 -105 -125 -228 -71 -124 -130 -223 -132
-222 -1 2 -32 113 -68 247 -35 134 -69 259 -73 277 -7 22 -6 32 1 32 6 0 97
-23 202 -51z m2396 19 c-5 -18 -39 -143 -75 -277 -36 -135 -66 -246 -68 -247
-1 -2 -60 98 -131 222 -71 123 -127 226 -125 228 6 6 372 104 391 105 14 1 15
-4 8 -31z m-6153 -137 l153 -156 -153 -265 c-84 -146 -158 -273 -164 -283 -8
-16 -21 1 -86 115 l-76 133 82 307 c45 170 84 307 87 306 3 0 74 -71 157 -157z
m9950 -149 l82 -307 -76 -133 c-65 -114 -78 -131 -86 -115 -6 10 -80 137 -164
283 l-153 265 153 156 c83 86 154 157 157 157 3 1 42 -136 87 -306z m-8604 23
c141 -82 257 -151 257 -155 0 -7 -770 -453 -774 -448 -2 1 -29 101 -61 221
l-58 219 169 169 c156 156 170 168 189 155 11 -7 136 -80 278 -161z m7592
-382 c-32 -120 -59 -220 -61 -221 -4 -5 -774 441 -774 448 0 3 125 79 278 167
l277 161 169 -168 169 -168 -58 -219z m-4779 391 c80 -80 144 -147 142 -149
-5 -5 -552 -153 -556 -150 -1 1 33 62 76 136 43 74 100 173 128 221 27 48 52
88 56 88 4 0 73 -65 154 -146z m276 53 c169 -45 301 -85 295 -88 -7 -4 -91
-28 -187 -53 l-174 -47 -141 142 c-77 78 -131 139 -120 135 11 -4 158 -44 327
-89z m1043 -47 l-141 -141 -174 47 c-96 25 -180 49 -187 53 -7 3 122 42 285
85 163 43 306 82 317 87 11 4 24 8 30 8 5 1 -53 -62 -130 -139z m279 52 c28
-48 85 -147 128 -221 43 -74 77 -135 76 -136 -4 -3 -551 145 -556 150 -5 5
286 295 296 295 4 0 29 -40 56 -88z m-6251 -213 c59 -102 107 -191 107 -198 0
-11 -235 -900 -245 -926 -2 -5 -4 301 -4 680 -1 670 0 689 17 660 10 -16 66
-114 125 -216z m10835 -782 l-3 -345 -123 461 c-67 254 -123 466 -122 471 0 5
55 105 123 222 l122 213 3 -339 c1 -186 1 -494 0 -683z m-8070 660 c95 -164
172 -300 172 -302 0 -2 -162 90 -360 203 -197 114 -359 209 -359 212 0 3 79
51 177 107 133 76 180 98 188 90 6 -7 88 -146 182 -310z m5580 193 c72 -41
131 -77 131 -80 0 -3 -162 -98 -359 -212 -198 -113 -360 -205 -360 -203 0 4
323 565 346 603 l15 22 47 -27 c26 -16 107 -62 180 -103z m-3030 -370 l-3
-130 -203 203 -203 203 203 55 203 55 3 -128 c1 -70 1 -187 0 -258z m312 320
c85 -23 156 -43 157 -44 1 -1 -90 -94 -202 -206 l-205 -205 0 262 0 262 48
-14 c26 -7 117 -32 202 -55z m-4804 -82 l132 -133 -249 -247 -248 -247 -51 89
c-28 50 -50 96 -48 104 4 19 321 566 328 566 3 0 64 -60 136 -132z m9349 -144
c88 -152 161 -283 163 -290 2 -8 -20 -54 -48 -104 l-51 -89 -248 247 -249 247
132 133 c72 72 133 132 136 132 3 0 78 -124 165 -276z m-5094 -65 l232 -231
-399 -399 c-219 -219 -401 -395 -405 -391 -12 13 -290 1074 -284 1081 5 5 595
168 618 170 4 1 111 -103 238 -230z m1078 150 c168 -45 310 -85 314 -89 8 -7
-268 -1067 -282 -1082 -4 -4 -186 172 -405 391 l-399 399 229 230 c126 127
231 231 233 231 2 1 142 -36 310 -80z m-4021 -266 l-3 -326 -228 -60 -228 -61
-162 162 c-88 89 -159 164 -156 166 10 10 764 445 772 446 4 0 6 -147 5 -327z
m408 126 c192 -111 359 -206 371 -212 13 -6 23 -13 23 -17 0 -4 -129 -41 -287
-83 -159 -42 -327 -88 -375 -101 l-88 -24 0 319 c0 175 2 319 4 319 2 0 161
-91 352 -201z m5964 -118 l0 -320 -47 14 c-27 8 -194 53 -373 100 -179 48
-327 89 -330 92 -3 3 0 7 5 9 6 2 172 98 370 213 198 115 363 210 368 210 4 1
7 -143 7 -318z m446 97 c211 -122 384 -224 384 -228 0 -3 -72 -77 -159 -164
l-160 -160 -228 61 -228 60 -3 326 c-1 180 0 327 4 327 3 0 178 -100 390 -222z
m-7744 41 l45 -171 -111 111 -111 111 60 60 c33 33 62 60 65 60 4 0 27 -77 52
-171z m8393 111 l60 -60 -111 -111 -111 -111 45 171 c25 94 48 171 52 171 3 0
32 -27 65 -60z m-8358 -376 c-14 -13 -635 -370 -657 -378 -11 -4 -28 17 -58
71 l-44 76 253 253 254 254 132 -132 c103 -102 130 -135 120 -144z m2865 244
c-11 -18 -95 -163 -187 -323 -91 -159 -170 -294 -175 -298 -4 -5 -154 76 -333
179 -179 104 -324 190 -322 192 2 2 235 66 517 142 282 76 514 139 516 139 2
1 -5 -14 -16 -31z m2973 -108 c270 -71 498 -133 508 -138 13 -5 -64 -54 -309
-195 -180 -104 -330 -185 -334 -180 -5 4 -84 139 -175 298 -92 160 -176 305
-187 322 -13 22 -15 31 -6 28 7 -3 234 -63 503 -135z m3083 -443 c-30 -54 -47
-75 -58 -71 -17 6 -639 362 -658 377 -10 8 18 42 120 144 l133 133 253 -253
254 -254 -44 -76z m-9880 304 c-6 -16 -373 -649 -375 -647 -1 1 52 202 118
446 65 244 119 446 119 449 0 3 32 -49 71 -117 39 -67 69 -126 67 -131z m4003
-181 c61 -228 122 -457 136 -508 13 -52 23 -95 21 -97 -2 -2 -59 30 -128 70
-69 40 -216 125 -326 189 l-202 116 154 266 c85 146 170 295 191 332 20 36 38
61 40 56 1 -5 52 -196 114 -424z m2433 88 l184 -318 -202 -116 c-110 -64 -257
-150 -326 -190 -69 -40 -126 -69 -127 -66 -2 4 44 180 101 392 56 212 118 443
137 513 22 83 37 124 42 115 4 -7 91 -156 191 -330z m3946 -109 c65 -244 118
-444 117 -445 -2 -2 -369 631 -375 647 -3 8 130 249 136 244 1 -1 56 -202 122
-446z m-7693 158 c-2 -6 -48 -176 -101 -377 -54 -201 -99 -373 -102 -382 -5
-17 -28 -18 -295 -18 l-289 0 0 290 0 290 28 6 c15 4 189 51 387 105 198 53
364 97 369 98 4 0 6 -5 3 -12z m5133 -91 c201 -54 373 -99 383 -102 16 -5 17
-28 17 -295 l0 -289 -289 0 c-267 0 -290 1 -295 18 -3 9 -48 181 -102 382 -53
201 -99 371 -102 379 -4 10 -1 13 9 9 8 -3 178 -49 379 -102z m-6768 -83 c26
-98 44 -180 40 -184 -6 -5 -647 -178 -676 -183 -9 -1 -94 132 -95 149 0 10
655 393 674 394 6 1 31 -79 57 -176z m8417 -18 c182 -104 330 -194 330 -200
-1 -17 -86 -150 -95 -149 -29 5 -670 178 -676 183 -12 11 85 362 99 359 7 -2
161 -88 342 -193z m-9360 59 l24 -42 -232 -231 c-127 -127 -231 -229 -231
-228 0 3 181 318 337 586 l25 44 27 -44 c15 -24 38 -63 50 -85z m10165 -193
c97 -168 176 -306 176 -308 0 -2 -104 101 -231 227 -127 127 -229 234 -227
239 16 39 93 160 99 154 4 -5 86 -145 183 -312z m-5244 -71 l0 -380 -380 0
-380 0 377 379 c208 209 379 380 381 380 1 1 2 -170 2 -379z m628 -188 l193
-192 -381 0 -380 0 0 380 0 380 188 -187 c103 -104 274 -275 380 -381z m-2901
535 c6 -12 101 -179 212 -371 111 -192 200 -351 198 -353 -2 -2 -145 -2 -318
-1 l-315 3 100 373 c55 204 102 372 106 372 4 0 11 -10 17 -23z m359 -154
c169 -98 307 -182 307 -186 0 -12 -197 -356 -203 -356 -3 0 -98 162 -212 359
-113 198 -205 360 -203 360 2 0 142 -80 311 -177z m3996 -183 c-114 -197 -209
-359 -212 -359 -6 0 -203 344 -203 356 0 7 598 360 615 362 3 1 -87 -161 -200
-359z m374 -12 l100 -373 -315 -3 c-173 -1 -316 -1 -318 1 -2 2 87 161 198
353 111 192 206 359 212 371 6 13 13 23 17 23 4 0 51 -168 106 -372z m-6293
235 c64 -65 116 -122 116 -128 1 -5 -35 -20 -78 -31 l-79 -22 -11 42 c-6 22
-24 89 -40 149 -16 59 -28 107 -27 107 2 0 55 -53 119 -117z m7826 10 c-16
-60 -34 -127 -40 -150 l-11 -41 -71 19 c-40 11 -78 22 -86 25 -10 3 25 45 105
128 65 68 122 124 126 125 3 0 -7 -47 -23 -106z m-7169 -325 l0 -263 -205 205
c-113 113 -205 207 -205 210 0 6 366 108 393 109 16 1 17 -18 17 -261z m6632
210 c109 -29 198 -55 198 -58 0 -3 -92 -97 -205 -210 l-205 -205 0 263 c0 144
3 262 8 262 4 1 96 -23 204 -52z m-8279 -29 c22 -39 37 -72 35 -73 -1 -1 -111
-65 -243 -141 -132 -76 -251 -145 -265 -153 -14 -8 76 87 200 211 124 125 227
227 230 227 3 0 22 -32 43 -71z m9987 -156 c124 -124 214 -219 200 -211 -14 8
-133 77 -265 153 -132 76 -242 140 -243 141 -5 3 72 144 78 144 3 0 106 -102
230 -227z m-8600 -108 l215 -215 -269 2 -269 3 -48 180 c-27 99 -47 184 -46
190 4 10 148 53 182 54 13 1 92 -71 235 -214z m7267 193 c47 -13 87 -27 89
-33 2 -5 -18 -91 -44 -190 l-49 -180 -269 -3 -269 -2 215 215 c118 118 221
215 229 215 7 0 51 -10 98 -22z m-7693 -224 c25 -94 46 -174 46 -177 0 -4
-151 -6 -336 -5 l-337 3 -50 88 c-27 48 -48 89 -46 91 10 10 665 182 671 177
3 -3 27 -83 52 -177z m8454 20 c34 -9 62 -19 62 -23 0 -3 -22 -44 -49 -91
l-48 -85 -337 -3 c-185 -1 -336 1 -336 5 0 10 91 346 96 354 2 3 126 -27 276
-68 150 -40 301 -81 336 -89z m-9305 86 c28 -51 35 -71 25 -75 -38 -13 -597
-161 -592 -156 11 11 509 299 519 300 6 0 27 -31 48 -69z m3478 -107 l308
-178 -411 -3 c-226 -1 -413 -1 -415 1 -4 5 198 357 205 357 3 0 144 -80 313
-177z m2959 -2 c55 -96 99 -176 97 -178 -2 -2 -189 -2 -415 -1 l-411 3 307
177 c169 98 310 177 314 175 4 -1 53 -80 108 -176z m3362 33 c139 -81 257
-150 261 -154 6 -5 -546 139 -591 155 -10 4 -3 24 25 75 21 38 41 70 45 70 3
0 120 -66 260 -146z m-9681 -127 l46 -82 -178 -3 c-99 -1 -261 -1 -360 0
l-181 3 303 82 c167 45 309 82 314 82 6 0 31 -37 56 -82z m9638 -4 l293 -78
-181 -3 c-99 -1 -261 -1 -360 0 l-178 3 46 83 c38 67 50 81 66 78 11 -3 152
-40 314 -83z m-9488 -257 c38 -65 68 -120 67 -121 -3 -2 -816 216 -873 234
-20 6 101 9 353 8 l384 -2 69 -119z m703 -87 c31 -116 55 -213 53 -215 -2 -2
-141 33 -308 77 l-305 82 -47 81 c-25 45 -60 105 -77 134 l-30 52 328 0 328 0
58 -211z m566 -73 l0 -284 -57 15 c-199 52 -386 103 -390 106 -2 3 -28 94 -57
203 -29 110 -56 209 -60 222 l-7 22 285 0 286 0 0 -284z m610 277 c1 -16 -105
-403 -110 -403 -3 0 -97 92 -210 205 l-205 205 263 0 c144 0 262 -3 262 -7z
m710 2 c0 -10 -444 -775 -450 -775 -3 0 -77 72 -164 159 l-160 160 59 223 c32
123 60 226 62 231 5 8 653 10 653 2z m695 -275 c-153 -153 -280 -278 -280
-277 -22 33 -315 548 -315 551 0 4 197 6 437 6 l438 0 -280 -280z m1165 69 c0
-115 -3 -208 -7 -206 -104 58 -701 403 -707 409 -6 4 153 8 352 8 l362 0 0
-211z m774 203 c-6 -6 -603 -351 -706 -409 -5 -2 -8 91 -8 206 l0 211 362 0
c199 0 358 -4 352 -8z m1046 2 c0 -3 -293 -518 -315 -551 0 -1 -127 124 -280
277 l-280 280 438 0 c240 0 437 -2 437 -6z m813 -227 l61 -228 -160 -160 c-87
-87 -161 -159 -164 -159 -6 0 -450 765 -450 775 0 3 147 4 327 3 l326 -3 60
-228z m317 28 c-113 -113 -207 -205 -210 -205 -5 0 -111 387 -110 403 0 4 118
7 262 7 l263 0 -205 -205z m854 183 c-4 -13 -31 -112 -60 -222 -29 -109 -55
-200 -57 -203 -4 -3 -191 -54 -389 -106 l-58 -15 0 284 0 284 286 0 285 0 -7
-22z m686 -30 c-17 -29 -52 -89 -77 -134 l-47 -81 -305 -82 c-167 -44 -306
-79 -308 -77 -2 2 22 99 53 215 l58 211 328 0 328 0 -30 -52z m825 41 c-66
-21 -870 -236 -873 -234 -2 2 10 25 26 51 16 27 48 82 71 122 l42 72 382 -1
c254 -1 372 -4 352 -10z m-6045 -417 c66 -246 99 -387 93 -393 -6 -6 -118 -72
-250 -148 l-240 -138 -139 240 c-77 132 -140 246 -142 253 -4 15 560 584 569
575 4 -3 53 -178 109 -389z m627 5 c40 -23 73 -44 73 -47 0 -3 -123 -76 -273
-162 -232 -135 -273 -155 -279 -140 -7 15 -198 728 -198 737 0 2 136 -76 303
-172 166 -96 335 -193 374 -216z m848 27 c-53 -197 -99 -367 -103 -376 -6 -15
-47 5 -279 140 -150 86 -273 159 -273 162 0 3 154 94 343 202 188 109 356 206
372 217 17 10 31 17 33 16 1 -1 -41 -164 -93 -361z m723 -218 c-2 -7 -65 -121
-142 -253 l-139 -240 -240 138 c-132 76 -244 142 -250 148 -6 6 27 147 93 393
56 211 104 386 107 390 6 11 575 -561 571 -576z m-3111 297 l161 -278 -168
-169 -168 -169 -219 58 c-120 32 -220 59 -221 61 -5 4 441 774 448 774 3 0 79
-125 167 -277z m3742 -109 c122 -212 221 -387 219 -388 -1 -2 -101 -29 -221
-61 l-219 -58 -168 169 -168 169 161 278 c88 152 164 277 167 277 3 0 106
-174 229 -386z m-4819 -152 c-14 -53 -31 -97 -36 -99 -5 -1 -90 19 -189 46
l-180 48 -3 269 -2 269 218 -218 219 -219 -27 -96z m5903 -2 c-14 -12 -365
-102 -371 -95 -4 4 -19 48 -33 98 l-26 92 216 218 216 217 3 -262 c1 -144 -1
-265 -5 -268z m-8036 405 c235 -63 447 -120 471 -127 43 -13 44 -15 167 -228
68 -118 123 -216 121 -217 -2 -2 -272 152 -601 342 -330 190 -596 345 -593
345 4 0 199 -52 435 -115z m9608 -230 c-329 -190 -599 -344 -601 -342 -2 1 53
100 122 218 l124 216 282 76 c156 42 364 99 463 126 99 27 186 49 194 50 8 0
-254 -154 -584 -344z m-9433 -71 c348 -201 638 -370 645 -377 13 -13 745
-1279 741 -1281 -2 0 -458 455 -1013 1012 -556 556 -1009 1012 -1008 1012 1 0
286 -164 635 -366z m9043 -646 c-555 -557 -1011 -1012 -1013 -1012 -8 4 732
1272 751 1287 22 17 1256 734 1267 736 3 1 -449 -455 -1005 -1011z m-8316 706
c150 -40 275 -75 278 -77 4 -4 162 -591 159 -593 0 -1 -108 61 -239 137 l-239
137 -120 209 c-66 114 -129 223 -140 242 l-21 33 24 -7 c13 -5 147 -41 298
-81z m8263 54 c-11 -18 -74 -127 -140 -241 l-120 -209 -239 -137 c-131 -76
-239 -138 -239 -137 -7 6 159 592 169 596 14 5 568 157 580 159 5 0 0 -14 -11
-31z m-7684 -209 l192 -53 0 -328 0 -328 -52 30 c-29 17 -90 52 -134 77 l-81
47 -78 290 c-43 160 -80 300 -83 310 -4 16 -1 18 19 13 13 -4 111 -30 217 -58z
m7039 44 c-2 -10 -39 -149 -82 -309 l-78 -290 -81 -47 c-44 -25 -105 -60 -133
-77 l-53 -30 0 328 0 328 203 56 c111 31 208 57 216 57 8 1 11 -6 8 -16z
m-3670 -889 c-6 -6 -423 108 -433 119 -17 19 -128 447 -118 457 5 4 131 78
279 164 l270 156 3 -447 c1 -245 1 -447 -1 -449z m358 728 c138 -79 254 -148
259 -152 10 -10 -101 -438 -118 -457 -6 -6 -99 -34 -206 -62 -107 -29 -203
-54 -212 -57 -17 -5 -18 21 -18 446 l0 451 23 -12 c12 -7 135 -77 272 -157z
m-2756 -79 c2 -2 2 -5 0 -7 -2 -2 -70 15 -151 36 l-146 40 19 72 c11 39 22 77
25 85 3 10 44 -23 127 -105 67 -65 123 -120 126 -121z m5139 146 l20 -77 -147
-40 c-80 -21 -147 -39 -148 -37 -2 1 52 56 119 123 68 67 126 118 129 114 3
-4 15 -41 27 -83z m-5673 -68 c94 -26 169 -51 169 -56 -3 -20 -176 -660 -180
-664 -2 -2 -43 19 -91 46 l-88 50 -3 337 c-2 266 0 336 10 335 7 0 90 -22 183
-48z m6123 -287 l-3 -337 -88 -50 c-48 -27 -89 -48 -91 -46 -4 4 -177 644
-180 664 -1 8 316 102 352 104 10 1 12 -69 10 -335z m-4508 98 c70 -122 127
-222 125 -222 -4 0 -515 136 -547 146 -13 4 18 41 130 154 81 82 151 148 155
147 5 -2 66 -102 137 -225z m2990 79 c113 -114 145 -151 132 -155 -73 -22
-545 -146 -547 -144 -2 4 256 448 261 448 3 0 72 -67 154 -149z m-4187 -2 c92
-24 167 -47 167 -52 0 -6 -375 -661 -387 -676 -3 -5 -60 25 -124 65 l-36 23
89 333 c104 391 95 361 111 356 6 -3 87 -24 180 -49z m5382 -298 l92 -342 -36
-23 c-64 -40 -121 -70 -124 -65 -13 15 -387 670 -387 676 0 9 339 103 354 99
5 -1 51 -156 101 -345z m-3421 23 c29 -110 49 -200 45 -202 -15 -6 -549 142
-541 150 12 12 436 256 440 253 2 -1 27 -92 56 -201z m1471 66 c99 -57 186
-108 193 -115 10 -9 -48 -28 -258 -84 -150 -40 -275 -71 -279 -69 -5 2 13 82
39 178 26 96 50 188 54 203 l7 28 32 -19 c18 -11 113 -66 212 -122z m-3198
-388 l-254 -254 -76 44 c-42 23 -77 46 -77 49 0 5 343 605 377 658 l15 24 134
-134 134 -134 -253 -253z m413 422 c2 -3 -24 -33 -58 -67 l-62 -62 -111 111
-111 111 168 -44 c93 -25 171 -47 174 -49z m4032 -16 l-112 -113 -62 62 c-34
34 -60 64 -58 67 4 3 284 81 340 95 3 0 -46 -50 -108 -111z m396 -228 c100
-173 183 -322 186 -330 4 -11 -17 -28 -71 -58 l-76 -44 -253 253 -254 254 132
132 c102 103 135 130 144 120 6 -6 92 -154 192 -327z m-6260 181 c116 -68 212
-124 212 -126 0 -1 56 -213 125 -469 69 -257 125 -470 125 -473 0 -4 -155 262
-345 591 -190 329 -345 600 -345 603 0 2 3 2 8 0 4 -2 103 -59 220 -126z
m7347 -476 c-190 -330 -345 -596 -345 -592 0 17 252 942 258 948 14 13 426
248 429 245 2 -2 -152 -272 -342 -601z m-5155 445 c146 -39 273 -74 283 -78
13 -5 -38 -40 -214 -141 l-231 -134 -141 141 -141 141 77 75 c42 41 83 73 90
71 6 -3 131 -36 277 -75z m3447 4 l77 -75 -141 -141 -141 -141 -231 134 c-126
73 -229 135 -227 137 2 2 134 39 293 82 158 43 289 79 290 79 1 1 37 -33 80
-75z m-3667 -384 c0 -7 -547 -324 -566 -328 -8 -2 -54 20 -104 48 l-89 51 247
248 247 249 133 -132 c72 -72 132 -133 132 -136z m724 29 c76 -132 136 -243
133 -246 -3 -3 -102 -31 -219 -63 l-213 -57 -162 160 c-92 91 -159 165 -154
170 9 9 462 275 471 276 3 0 67 -107 144 -240z m2442 110 c126 -73 235 -137
241 -143 10 -9 -24 -48 -150 -172 l-162 -161 -213 57 c-117 32 -216 60 -219
63 -4 5 267 487 273 487 1 0 105 -59 230 -131z m986 -241 l127 -127 -88 -50
c-49 -28 -93 -51 -99 -51 -9 0 -559 314 -571 326 -3 3 55 65 128 138 l134 134
121 -122 c67 -67 178 -178 248 -248z m-3192 284 l284 -77 28 -100 c15 -55 24
-103 20 -106 -10 -9 -371 -103 -376 -98 -23 27 -262 459 -253 458 7 0 140 -35
297 -77z m1778 -149 c-72 -126 -132 -230 -134 -232 -5 -5 -366 89 -376 98 -4
3 5 51 20 106 l28 100 284 77 c157 42 290 77 297 77 7 1 -47 -101 -119 -226z
m-4312 148 l119 -69 3 -383 c1 -210 0 -381 -2 -378 -2 2 -52 184 -110 404 -59
220 -114 421 -121 448 -8 26 -12 47 -11 47 2 0 57 -31 122 -69z m6779 22 c-7
-27 -62 -228 -121 -448 -58 -220 -108 -402 -110 -404 -2 -3 -3 168 -2 378 l3
383 115 68 c63 37 118 68 122 69 4 1 1 -20 -7 -46z m-3637 -185 c45 -11 81
-22 80 -24 -2 -2 -63 -19 -136 -39 -72 -19 -138 -38 -146 -41 -10 -4 -19 16
-35 74 -11 43 -21 83 -21 89 0 7 33 2 88 -13 48 -14 124 -34 170 -46z m621
-28 c-16 -60 -25 -80 -35 -76 -8 3 -74 22 -146 41 -73 20 -134 37 -135 39 -2
1 73 23 165 47 92 25 168 42 170 38 2 -4 -7 -44 -19 -89z m-3474 25 c28 -16
51 -30 53 -31 3 -2 -153 -595 -162 -619 -3 -5 -5 153 -5 353 l-1 364 33 -20
c17 -11 55 -32 82 -47z m6203 -476 l-3 -181 -83 313 c-46 172 -80 315 -75 316
4 2 42 23 83 47 l75 44 3 -179 c1 -98 1 -260 0 -360z m-4560 111 c1 -3 -136
-42 -306 -87 l-307 -82 -133 76 c-99 56 -130 78 -119 85 9 4 136 78 284 163
l268 155 156 -153 c86 -83 157 -154 157 -157z m1372 -85 l0 -395 -89 0 c-77 0
-90 3 -95 18 -38 126 -176 658 -173 666 2 6 82 32 178 58 96 25 175 47 177 47
1 1 2 -177 2 -394z m383 308 c16 -3 31 -11 33 -18 4 -8 -130 -524 -172 -667
-5 -15 -18 -18 -95 -18 l-89 0 0 394 0 394 148 -39 c81 -22 160 -42 175 -46z
m1662 -86 c143 -82 261 -151 263 -152 1 -1 -57 -37 -130 -78 l-133 -76 -305
81 c-168 45 -306 82 -307 83 -2 1 68 72 154 158 140 139 159 154 178 145 11
-6 137 -79 280 -161z m-4815 81 c0 -7 -288 -508 -300 -521 -5 -6 139 546 155
591 4 10 24 3 75 -25 38 -21 70 -41 70 -45z m5826 -229 c44 -165 77 -296 74
-292 -12 13 -300 514 -300 521 0 10 134 82 140 76 3 -3 41 -140 86 -305z
m-3378 -137 l89 -333 -110 3 -110 3 -164 284 c-90 156 -162 286 -159 288 10
10 351 100 358 94 3 -3 46 -156 96 -339z m1158 245 c3 -2 -69 -132 -159 -288
l-164 -284 -110 -3 -110 -3 88 327 c48 180 90 332 93 339 3 9 51 0 181 -35 97
-27 179 -50 181 -53z m-3485 56 c38 -21 69 -40 69 -43 0 -3 -101 -106 -226
-230 l-225 -225 107 185 c58 102 127 222 153 267 25 45 48 83 50 83 2 0 34
-17 72 -37z m5480 -46 c26 -45 95 -165 153 -267 l107 -185 -225 225 c-125 124
-226 227 -226 230 0 5 131 79 140 79 3 0 26 -37 51 -82z m-5272 -74 c44 -26
77 -51 73 -54 -8 -8 -614 -359 -619 -359 -6 0 452 458 458 459 4 1 43 -20 88
-46z m1767 -230 l161 -278 -151 -3 -150 -3 -223 223 c-122 122 -220 224 -217
227 6 7 383 109 404 110 11 1 72 -95 176 -276z m1783 225 c108 -28 199 -54
203 -57 4 -4 -93 -107 -215 -229 l-223 -223 -150 3 -151 3 161 278 c88 152
164 277 169 277 5 0 98 -23 206 -52z m1711 -178 c127 -126 229 -230 227 -230
-5 0 -611 351 -619 359 -7 6 135 98 155 100 4 1 111 -102 237 -229z m-4995 30
c66 -39 117 -70 114 -70 -3 0 -205 -54 -449 -119 -244 -66 -445 -119 -446
-118 -4 3 641 375 651 376 6 0 64 -31 130 -69z m1065 -145 l216 -215 -277 0
-277 0 -237 137 -237 136 283 78 c156 42 291 78 299 78 8 1 112 -96 230 -214z
m2804 136 l288 -78 -237 -136 -237 -137 -277 0 -277 0 216 215 c118 118 220
215 225 215 6 0 140 -36 299 -79z m1004 -111 c176 -102 319 -186 318 -187 -1
-1 -202 52 -446 118 -244 65 -446 119 -449 119 -3 0 48 31 114 70 66 38 125
69 131 67 6 -1 155 -85 332 -187z m-4472 -112 l213 -123 -345 -3 c-190 -1
-498 -1 -684 0 l-338 3 452 122 c248 66 460 122 470 122 11 1 115 -54 232
-121z m4301 0 l461 -123 -338 -3 c-186 -1 -494 -1 -684 0 l-345 3 212 122
c117 68 217 123 222 123 6 0 218 -55 472 -122z m-3357 -544 c333 -193 619
-358 635 -367 41 -22 24 -21 -65 4 -41 11 -325 87 -630 169 -305 82 -852 228
-1215 326 -363 97 -697 186 -742 197 -46 12 -83 24 -83 27 0 3 336 3 747 0
l748 -5 605 -351z m343 8 c189 -188 340 -341 336 -340 -20 7 -1188 684 -1189
688 0 3 115 3 255 0 l254 -5 344 -343z m1886 345 c-8 -7 -1189 -687 -1192
-687 -2 0 151 154 340 343 l344 342 252 5 c239 5 266 4 256 -3z m1590 0 c-2
-2 -49 -15 -104 -29 -55 -15 -352 -94 -660 -176 -308 -83 -846 -227 -1195
-321 -349 -93 -669 -179 -710 -190 -89 -25 -106 -26 -65 -4 17 9 302 174 635
367 l605 351 745 5 c410 3 747 4 749 3 2 -2 2 -4 0 -6z m-3301 -280 c89 -155
174 -301 188 -324 14 -24 24 -43 22 -43 -2 0 -149 146 -328 325 l-325 325 140
0 140 0 163 -283z m172 -7 c42 -157 80 -296 84 -310 5 -16 5 -21 -1 -15 -12
12 -353 602 -353 610 0 3 43 4 97 3 l96 -3 77 -285z m139 -12 c-1 -167 -4
-289 -9 -273 -4 17 -39 150 -79 296 -39 146 -71 269 -71 273 0 3 36 6 80 6
l80 0 -1 -302z m221 296 c0 -4 -32 -127 -71 -273 -40 -146 -75 -279 -79 -296
-5 -16 -8 106 -9 273 l-1 302 80 0 c44 0 80 -3 80 -6z m250 1 c0 -8 -342 -599
-353 -610 -7 -7 -8 -4 -4 8 4 10 41 145 82 300 42 155 78 288 80 295 3 8 32
12 100 12 52 0 95 -2 95 -5z m340 2 c0 -1 -147 -148 -326 -327 -231 -230 -319
-312 -300 -280 14 25 99 172 188 327 l163 283 138 0 c75 0 137 -1 137 -3z"/>
</g>
</svg>
